<svg width="149" height="150" viewBox="0 0 149 150" fill="none" xmlns="http://www.w3.org/2000/svg">
<g filter="url(#filter0_d_4021_689)">
<path d="M74.1634 10C58.0608 10 45 23.4354 45 40C45 56.5646 58.0608 70 74.1634 70C90.2901 70 103.327 56.5646 103.327 40C103.351 23.4354 90.2901 10 74.1634 10ZM82.7579 53.0629C80.392 54.9255 77.3501 55.8692 73.6805 55.8692C70.0834 55.8692 67.2347 54.9503 65.1585 53.1374C63.0581 51.3245 62.0442 49.0149 62.0683 46.2583C62.0683 44.0728 62.5753 42.4089 63.5892 41.2666C64.6032 40.1242 65.9551 39.2798 67.5968 38.6838C69.2626 38.0877 71.0732 37.5911 73.0287 37.1192C74.9842 36.6473 76.5534 36.0762 77.7364 35.4801C78.9435 34.8841 79.5229 34.0397 79.5229 32.9967C79.5229 31.9536 79.0883 31.0844 78.2433 30.4139C77.3742 29.7434 76.1671 29.4205 74.5979 29.4205C73.0046 29.4205 71.725 29.793 70.7594 30.5132C69.7937 31.2334 69.2384 32.2517 69.0212 33.543H63.0823C63.4444 30.5877 64.6032 28.303 66.6311 26.6639C68.659 25.0248 71.2663 24.2301 74.5014 24.2301C78.0261 24.2301 80.7541 25.1242 82.7096 26.8626C84.6651 28.6258 85.6308 30.8361 85.6308 33.4685C85.6308 35.3808 85.0996 36.8957 84.0133 37.9884C82.9269 39.106 81.5991 39.9752 79.9574 40.5712C78.3399 41.1672 76.6983 41.6639 75.0566 42.0364C72.9563 42.4834 71.2905 42.9801 70.1075 43.5265C68.9004 44.0728 68.321 45.1159 68.321 46.6556C68.321 47.6987 68.7556 48.6424 69.6006 49.4619C70.4697 50.2566 71.8216 50.6788 73.7047 50.6788C75.6119 50.6788 77.157 50.1821 78.3399 49.1887C79.4987 48.1954 80.2471 47.0033 80.561 45.6374H86.8379C86.524 48.7417 85.1479 51.2003 82.7579 53.0629Z" fill="#D81D3C"/>
</g>
<defs>
<filter id="filter0_d_4021_689" x="0" y="0" width="148.327" height="150" filterUnits="userSpaceOnUse" color-interpolation-filters="sRGB">
<feFlood flood-opacity="0" result="BackgroundImageFix"/>
<feColorMatrix in="SourceAlpha" type="matrix" values="0 0 0 0 0 0 0 0 0 0 0 0 0 0 0 0 0 0 127 0" result="hardAlpha"/>
<feOffset dy="35"/>
<feGaussianBlur stdDeviation="22.5"/>
<feColorMatrix type="matrix" values="0 0 0 0 0.027451 0 0 0 0 0.054902 0 0 0 0 0.152941 0 0 0 0.05 0"/>
<feBlend mode="normal" in2="BackgroundImageFix" result="effect1_dropShadow_4021_689"/>
<feBlend mode="normal" in="SourceGraphic" in2="effect1_dropShadow_4021_689" result="shape"/>
</filter>
</defs>
</svg>
