<svg width="150" height="150" viewBox="0 0 150 150" fill="none" xmlns="http://www.w3.org/2000/svg">
<g filter="url(#filter0_d_4021_687)">
<rect x="45" y="10" width="60" height="60" rx="30" fill="white"/>
<path fill-rule="evenodd" clip-rule="evenodd" d="M66.8491 46.0189C63.5187 53.6449 59.5061 63.0143 59.5061 63.0143C59.5061 63.0143 59.8032 53.0653 62.3713 43.3576C62.9819 41.0496 64.0936 37.558 66.0251 33.7464C62.6678 33.7977 56.9073 36.3412 53.9193 37.6605C52.742 38.1803 51.995 38.5101 51.9951 38.4225C51.9954 38.1106 54.558 32.7638 66.1258 29.2299C67.0541 28.9463 68.0928 28.7005 69.1973 28.4934C70.6199 26.4829 72.7941 23.6627 74.8958 21.8076C78.0903 18.9879 86.3147 15.1851 90.8682 21.0581C90.8747 21.0666 90.7987 21.0617 90.6522 21.0523C89.5888 20.984 84.8144 20.6776 81.0029 23.4999C78.2757 25.5194 77.2329 26.8389 76.786 27.7048C80.3582 27.5955 83.6592 27.8585 85.4621 28.5205C91.9084 30.8872 93.946 35.4009 94.6767 37.0195C94.7724 37.2317 94.8458 37.3942 94.9036 37.4955C94.9679 37.608 95.0013 37.6601 94.9985 37.6621C94.9799 37.6755 93.3064 35.3957 88.3516 34.0567C83.8153 32.8308 76.1403 33.1359 72.6532 33.2938C71.5015 35.2134 70.1986 38.2458 68.5192 42.1542C68.0006 43.3612 67.4461 44.6518 66.8491 46.0189ZM81.4385 56.0224C84.4194 56.0224 86.8358 53.5839 86.8358 50.5759C86.8358 47.5678 84.4194 45.1293 81.4385 45.1293C78.4577 45.1293 76.0412 47.5678 76.0412 50.5759C76.0412 53.5839 78.4577 56.0224 81.4385 56.0224Z" fill="#5329D7"/>
</g>
<defs>
<filter id="filter0_d_4021_687" x="0" y="0" width="150" height="150" filterUnits="userSpaceOnUse" color-interpolation-filters="sRGB">
<feFlood flood-opacity="0" result="BackgroundImageFix"/>
<feColorMatrix in="SourceAlpha" type="matrix" values="0 0 0 0 0 0 0 0 0 0 0 0 0 0 0 0 0 0 127 0" result="hardAlpha"/>
<feOffset dy="35"/>
<feGaussianBlur stdDeviation="22.5"/>
<feColorMatrix type="matrix" values="0 0 0 0 0.027451 0 0 0 0 0.054902 0 0 0 0 0.152941 0 0 0 0.05 0"/>
<feBlend mode="normal" in2="BackgroundImageFix" result="effect1_dropShadow_4021_687"/>
<feBlend mode="normal" in="SourceGraphic" in2="effect1_dropShadow_4021_687" result="shape"/>
</filter>
</defs>
</svg>
