<svg width="151" height="150" viewBox="0 0 151 150" fill="none" xmlns="http://www.w3.org/2000/svg">
<g filter="url(#filter0_d_4021_691)">
<circle cx="75.3262" cy="40" r="30" fill="#23D05F"/>
<g clip-path="url(#clip0_4021_691)">
<path d="M75.3255 27.0428C68.1679 27.0428 62.3652 32.8453 62.3652 40.0029C62.3652 47.1608 68.1679 52.9628 75.3255 52.9628C82.4838 52.9628 88.2858 47.1608 88.2858 40.0029C88.2858 32.8458 82.4838 27.0435 75.3253 27.0435L75.3255 27.0428ZM81.2689 45.735C81.0368 46.1157 80.5385 46.2364 80.1578 46.0027C77.1148 44.144 73.2842 43.7231 68.7728 44.7538C68.3381 44.8528 67.9048 44.5805 67.8057 44.1456C67.7062 43.7107 67.9775 43.2774 68.4133 43.1783C73.3502 42.05 77.585 42.5361 81.0012 44.6238C81.3819 44.8575 81.5026 45.3543 81.2689 45.735ZM82.8552 42.2056C82.5627 42.6815 81.9406 42.8317 81.4655 42.5392C77.9818 40.3974 72.6715 39.7773 68.5509 41.0281C68.0165 41.1895 67.4521 40.8883 67.2899 40.3548C67.129 39.8205 67.4303 39.2571 67.9637 39.0946C72.6705 37.6665 78.5219 38.3583 82.5225 40.8167C82.9976 41.1092 83.1477 41.7313 82.8552 42.2058V42.2056ZM82.9914 38.531C78.8144 36.05 71.9229 35.8219 67.9348 37.0323C67.2944 37.2265 66.6172 36.865 66.4231 36.2246C66.229 35.5838 66.5902 34.9071 67.2311 34.7124C71.8091 33.3226 79.4195 33.5911 84.2286 36.446C84.8059 36.7879 84.9947 37.5318 84.6527 38.1071C84.3122 38.6831 83.5662 38.873 82.9921 38.531H82.9914Z" fill="white"/>
</g>
</g>
<defs>
<filter id="filter0_d_4021_691" x="0.326172" y="0" width="150" height="150" filterUnits="userSpaceOnUse" color-interpolation-filters="sRGB">
<feFlood flood-opacity="0" result="BackgroundImageFix"/>
<feColorMatrix in="SourceAlpha" type="matrix" values="0 0 0 0 0 0 0 0 0 0 0 0 0 0 0 0 0 0 127 0" result="hardAlpha"/>
<feOffset dy="35"/>
<feGaussianBlur stdDeviation="22.5"/>
<feColorMatrix type="matrix" values="0 0 0 0 0.027451 0 0 0 0 0.054902 0 0 0 0 0.152941 0 0 0 0.05 0"/>
<feBlend mode="normal" in2="BackgroundImageFix" result="effect1_dropShadow_4021_691"/>
<feBlend mode="normal" in="SourceGraphic" in2="effect1_dropShadow_4021_691" result="shape"/>
</filter>
<clipPath id="clip0_4021_691">
<rect width="26" height="26" fill="white" transform="translate(62.3262 27)"/>
</clipPath>
</defs>
</svg>
